<svg width="900" height="240" viewBox="0 0 900 240" fill="none" xmlns="http://www.w3.org/2000/svg">
  <defs>
    <linearGradient id="ansharP2" x1="38" y1="38" x2="184" y2="188" gradientUnits="userSpaceOnUse">
      <stop stop-color="#7BE7FF"/>
      <stop offset="1" stop-color="#27D3FF"/>
    </linearGradient>
  </defs>
  <rect width="900" height="240" rx="36" fill="#081120"/>
  <rect x="28" y="28" width="184" height="184" rx="46" fill="#0B1730" stroke="#1E395F" stroke-width="2"/>
  <circle cx="120" cy="120" r="56" stroke="url(#ansharP2)" stroke-width="18"/>
  <circle cx="120" cy="120" r="12" fill="#F5F9FF"/>
  <path d="M77 157C87 139 101.667 130 121 130C140.333 130 155 139 165 157" stroke="#27D3FF" stroke-width="14" stroke-linecap="round"/>
  <circle cx="72" cy="76" r="8" fill="#27D3FF" fill-opacity="0.75"/>
  <circle cx="168" cy="74" r="6" fill="#7BE7FF" fill-opacity="0.55"/>
  <path d="M260 84H275.84L294.32 156H278.96L275.68 142.16H260.08L256.8 156H242.08L260 84ZM272.64 130.72L267.88 109.72L263.12 130.72H272.64ZM303.301 84H317.621L339.581 121.84V84H354.061V156H339.741L317.781 118.4V156H303.301V84ZM370.145 84H386.145L399.505 104.72L413.025 84H427.745L406.705 115.76L428.825 156H412.665L398.625 133.68L384.425 156H369.225L391.425 122.64L370.145 84ZM451.637 82.56C467.637 82.56 480.637 89.28 490.637 102.72L479.277 112.72C472.717 104.72 465.157 100.72 456.597 100.72C449.077 100.72 442.957 103.2 438.237 108.16C433.597 113.12 431.277 119.4 431.277 127C431.277 134.6 433.597 140.88 438.237 145.84C442.957 150.8 449.077 153.28 456.597 153.28C465.157 153.28 472.717 149.24 479.277 141.16L490.637 151.16C480.637 164.68 467.637 171.44 451.637 171.44C439.797 171.44 430.077 167.64 422.477 160.04C414.877 152.36 411.077 142.72 411.077 131.12C411.077 119.52 414.877 109.92 422.477 102.32C430.077 94.64 439.797 90.8 451.637 90.8V82.56ZM507.899 84H524.219V111.36H549.499V84H565.819V156H549.499V125.36H524.219V156H507.899V84ZM583.001 84H636.361V97.84H599.161V112.64H632.921V126.24H599.161V142.16H636.841V156H583.001V84ZM653.973 84H686.853C695.253 84 701.773 85.88 706.413 89.64C711.133 93.32 713.493 98.64 713.493 105.6C713.493 112.88 710.813 118.48 705.453 122.4C700.173 126.32 692.973 128.28 683.853 128.28H670.133V156H653.973V84ZM683.373 114.68C687.053 114.68 689.853 113.96 691.773 112.52C693.693 111 694.653 108.88 694.653 106.16C694.653 103.44 693.693 101.36 691.773 99.92C689.853 98.4 687.053 97.64 683.373 97.64H670.133V114.68H683.373Z" fill="#F5F9FF"/>
  <path d="M260 190V180.8H263.32L268.76 187.36V180.8H272.72V190H269.4L263.96 183.44V190H260ZM280.35 190.28C278.863 190.28 277.65 189.84 276.71 188.96C275.783 188.067 275.32 186.94 275.32 185.58C275.32 184.22 275.783 183.1 276.71 182.22C277.65 181.327 278.863 180.88 280.35 180.88C281.837 180.88 283.043 181.327 283.97 182.22C284.91 183.1 285.38 184.22 285.38 185.58C285.38 186.94 284.91 188.067 283.97 188.96C283.043 189.84 281.837 190.28 280.35 190.28ZM280.35 187.08C280.87 187.08 281.29 186.94 281.61 186.66C281.943 186.367 282.11 186.007 282.11 185.58C282.11 185.153 281.943 184.8 281.61 184.52C281.29 184.227 280.87 184.08 280.35 184.08C279.83 184.08 279.403 184.227 279.07 184.52C278.75 184.8 278.59 185.153 278.59 185.58C278.59 186.007 278.75 186.367 279.07 186.66C279.403 186.94 279.83 187.08 280.35 187.08ZM290.167 190V183.96H287.767V180.8H296.527V183.96H294.127V190H290.167ZM301.334 190L297.734 180.8H301.894L303.554 185.52L305.374 180.8H309.094L310.914 185.52L312.574 180.8H316.414L312.814 190H308.654L307.094 185.92L305.494 190H301.334ZM322.104 190.28C320.618 190.28 319.404 189.84 318.464 188.96C317.538 188.067 317.074 186.94 317.074 185.58C317.074 184.22 317.538 183.1 318.464 182.22C319.404 181.327 320.618 180.88 322.104 180.88C323.591 180.88 324.798 181.327 325.724 182.22C326.664 183.1 327.134 184.22 327.134 185.58C327.134 186.94 326.664 188.067 325.724 188.96C324.798 189.84 323.591 190.28 322.104 190.28ZM322.104 187.08C322.624 187.08 323.044 186.94 323.364 186.66C323.698 186.367 323.864 186.007 323.864 185.58C323.864 185.153 323.698 184.8 323.364 184.52C323.044 184.227 322.624 184.08 322.104 184.08C321.584 184.08 321.158 184.227 320.824 184.52C320.504 184.8 320.344 185.153 320.344 185.58C320.344 186.007 320.504 186.367 320.824 186.66C321.158 186.94 321.584 187.08 322.104 187.08ZM329.862 190V180.8H334.292C335.152 180.8 335.892 180.94 336.512 181.22C337.132 181.487 337.612 181.88 337.952 182.4C338.292 182.907 338.462 183.507 338.462 184.2C338.462 184.867 338.305 185.447 337.992 185.94C337.692 186.433 337.252 186.82 336.672 187.1L338.662 190H334.432L332.922 187.72H332.322V190H329.862ZM332.322 185.08H334.092C334.439 185.08 334.699 185 334.872 184.84C335.059 184.667 335.152 184.433 335.152 184.14C335.152 183.847 335.059 183.62 334.872 183.46C334.699 183.287 334.439 183.2 334.092 183.2H332.322V185.08ZM340.74 190V180.8H344.7V184L347.22 180.8H351.53L348.55 184.48L351.69 190H347.22L345.72 187.24L344.7 188.5V190H340.74Z" fill="#AFC0DA"/>
</svg>
