<svg width="900" height="240" viewBox="0 0 900 240" fill="none" xmlns="http://www.w3.org/2000/svg">
  <defs>
    <linearGradient id="ansharP1" x1="36" y1="28" x2="184" y2="194" gradientUnits="userSpaceOnUse">
      <stop stop-color="#7BE7FF"/>
      <stop offset="1" stop-color="#27D3FF"/>
    </linearGradient>
  </defs>
  <rect width="900" height="240" rx="36" fill="#081120"/>
  <rect x="28" y="28" width="184" height="184" rx="40" fill="#0B1730" stroke="#1E395F" stroke-width="2"/>
  <path d="M120 50 68 166H91.4L101.8 142H138.2L148.6 166H172L120 50Zm0 37.4 11.6 27.4H108.4L120 87.4Z" fill="url(#ansharP1)"/>
  <circle cx="120" cy="118" r="10" fill="#F5F9FF"/>
  <path d="M260 78H327.2V95.8H281.6V110.4H321.4V127.8H281.6V162H260V78ZM342.006 78H364.406V145.2H405.806V162H342.006V78ZM456.635 76.4C469.995 76.4 480.848 80.4133 489.195 88.44C497.542 96.3867 501.715 106.507 501.715 118.8C501.715 131.093 497.542 141.253 489.195 149.28C480.848 157.227 469.995 161.2 456.635 161.2C443.275 161.2 432.382 157.227 423.955 149.28C415.608 141.253 411.435 131.093 411.435 118.8C411.435 106.507 415.608 96.3867 423.955 88.44C432.382 80.4133 443.275 76.4 456.635 76.4ZM456.635 95.6C449.755 95.6 444.128 97.7733 439.755 102.12C435.462 106.467 433.315 112.027 433.315 118.8C433.315 125.573 435.462 131.133 439.755 135.48C444.128 139.827 449.755 142 456.635 142C463.435 142 468.982 139.827 473.275 135.48C477.648 131.133 479.835 125.573 479.835 118.8C479.835 112.027 477.648 106.467 473.275 102.12C468.982 97.7733 463.435 95.6 456.635 95.6ZM516.967 78H538.807L558.007 137.28L577.487 78H595.247L614.727 137.28L633.927 78H655.767L626.847 162H605.487L586.247 106.48L566.767 162H545.847L516.967 78ZM671.145 78H734.345V95.4H692.745V111.04H730.425V128.2H692.745V144.6H735.545V162H671.145V78ZM751.772 78H793.772C803.372 78 810.865 80.2133 816.252 84.64C821.719 89.0667 824.452 95.2267 824.452 103.12C824.452 111.733 821.399 118.307 815.292 122.84C809.185 127.373 800.905 129.64 790.452 129.64H773.372V162H751.772V78ZM789.772 112.8C794.252 112.8 797.705 111.973 800.132 110.32C802.639 108.587 803.892 106.067 803.892 102.76C803.892 99.5333 802.639 97.0933 800.132 95.44C797.705 93.7067 794.252 92.84 789.772 92.84H773.372V112.8H789.772Z" fill="#F5F9FF"/>
  <path d="M260 190V180.8H263.32L268.76 187.36V180.8H272.72V190H269.4L263.96 183.44V190H260ZM280.35 190.28C278.863 190.28 277.65 189.84 276.71 188.96C275.783 188.067 275.32 186.94 275.32 185.58C275.32 184.22 275.783 183.1 276.71 182.22C277.65 181.327 278.863 180.88 280.35 180.88C281.837 180.88 283.043 181.327 283.97 182.22C284.91 183.1 285.38 184.22 285.38 185.58C285.38 186.94 284.91 188.067 283.97 188.96C283.043 189.84 281.837 190.28 280.35 190.28ZM280.35 187.08C280.87 187.08 281.29 186.94 281.61 186.66C281.943 186.367 282.11 186.007 282.11 185.58C282.11 185.153 281.943 184.8 281.61 184.52C281.29 184.227 280.87 184.08 280.35 184.08C279.83 184.08 279.403 184.227 279.07 184.52C278.75 184.8 278.59 185.153 278.59 185.58C278.59 186.007 278.75 186.367 279.07 186.66C279.403 186.94 279.83 187.08 280.35 187.08ZM290.167 190V183.96H287.767V180.8H296.527V183.96H294.127V190H290.167ZM301.334 190L297.734 180.8H301.894L303.554 185.52L305.374 180.8H309.094L310.914 185.52L312.574 180.8H316.414L312.814 190H308.654L307.094 185.92L305.494 190H301.334ZM322.104 190.28C320.618 190.28 319.404 189.84 318.464 188.96C317.538 188.067 317.074 186.94 317.074 185.58C317.074 184.22 317.538 183.1 318.464 182.22C319.404 181.327 320.618 180.88 322.104 180.88C323.591 180.88 324.798 181.327 325.724 182.22C326.664 183.1 327.134 184.22 327.134 185.58C327.134 186.94 326.664 188.067 325.724 188.96C324.798 189.84 323.591 190.28 322.104 190.28ZM322.104 187.08C322.624 187.08 323.044 186.94 323.364 186.66C323.698 186.367 323.864 186.007 323.864 185.58C323.864 185.153 323.698 184.8 323.364 184.52C323.044 184.227 322.624 184.08 322.104 184.08C321.584 184.08 321.158 184.227 320.824 184.52C320.504 184.8 320.344 185.153 320.344 185.58C320.344 186.007 320.504 186.367 320.824 186.66C321.158 186.94 321.584 187.08 322.104 187.08ZM329.862 190V180.8H334.292C335.152 180.8 335.892 180.94 336.512 181.22C337.132 181.487 337.612 181.88 337.952 182.4C338.292 182.907 338.462 183.507 338.462 184.2C338.462 184.867 338.305 185.447 337.992 185.94C337.692 186.433 337.252 186.82 336.672 187.1L338.662 190H334.432L332.922 187.72H332.322V190H329.862ZM332.322 185.08H334.092C334.439 185.08 334.699 185 334.872 184.84C335.059 184.667 335.152 184.433 335.152 184.14C335.152 183.847 335.059 183.62 334.872 183.46C334.699 183.287 334.439 183.2 334.092 183.2H332.322V185.08ZM340.74 190V180.8H344.7V184L347.22 180.8H351.53L348.55 184.48L351.69 190H347.22L345.72 187.24L344.7 188.5V190H340.74Z" fill="#AFC0DA"/>
</svg>
