<svg width="360" height="96" viewBox="0 0 360 96" fill="none" xmlns="http://www.w3.org/2000/svg">
  <rect x="6" y="6" width="84" height="84" rx="24" fill="#0B1730"/>
  <rect x="6.5" y="6.5" width="83" height="83" rx="23.5" stroke="#35527E"/>
  <path d="M48 18L20 76H32.6L38.4 63.8H57.6L63.4 76H76L48 18Zm0 14.4 5.2 11.4H26.8L32 32.4Z" fill="#F5F9FF"/>
  <circle cx="48" cy="49" r="5.2" fill="#0B1730"/>
  <path d="M117 35.94H127.86L140.88 70H130.38L127.92 63.12H116.7L114.24 70H103.98L117 35.94ZM125.22 55.74L122.34 47.22L119.46 55.74H125.22ZM155.421 35.94H165.381L177.999 54.42V35.94H188.139V70H178.179L165.561 51.66V70H155.421V35.94ZM204.656 35.94H214.616L227.234 54.42V35.94H237.374V70H227.414L214.796 51.66V70H204.656V35.94ZM254.131 35.94H264.991L278.011 70H267.511L265.051 63.12H253.831L251.371 70H241.111L254.131 35.94ZM262.351 55.74L259.471 47.22L256.591 55.74H262.351ZM284.501 35.94H301.541C307.141 35.94 311.414 37.3 314.361 40.02C317.307 42.74 318.781 46.62 318.781 51.66C318.781 55.02 317.934 57.82 316.241 60.06C314.681 62.1133 312.474 63.6267 309.621 64.6L319.561 70H308.701L300.661 65.04H294.701V70H284.501V35.94ZM300.821 57.78C302.821 57.78 304.341 57.2733 305.381 56.26C306.421 55.22 306.941 53.7667 306.941 51.9C306.941 50.0333 306.421 48.62 305.381 47.66C304.341 46.6733 302.821 46.18 300.821 46.18H294.701V57.78H300.821ZM331.061 35.94H341.261V47.9H352.241V35.94H362.441V70H352.241V57.54H341.261V70H331.061V35.94Z" fill="#F5F9FF"/>
  <path d="M118.1 83V76.28H120.56V83H118.1ZM125.289 83L122.349 76.28H124.969L126.979 81.35L128.999 76.28H131.529L128.589 83H125.289ZM135.588 79.06H139.038V80.95H135.588V79.06ZM135.768 81.11H139.658V83H133.338V76.28H139.508V78.17H135.768V81.11ZM147.449 83L146.019 80.88H145.929H144.429V83H141.969V76.28H145.929C146.715 76.28 147.395 76.41 147.969 76.67C148.542 76.9233 148.985 77.29 149.299 77.77C149.612 78.2433 149.769 78.8 149.769 79.44C149.769 80.06 149.619 80.6033 149.319 81.07C149.019 81.53 148.589 81.89 148.029 82.15L149.789 83H147.449ZM147.279 79.44C147.279 79.12 147.179 78.8733 146.979 78.7C146.785 78.52 146.489 78.43 146.089 78.43H144.429V80.45H146.089C146.489 80.45 146.785 80.3633 146.979 80.19C147.179 80.01 147.279 79.76 147.279 79.44ZM154.43 83.18C153.877 83.18 153.343 83.1167 152.83 82.99C152.323 82.8567 151.907 82.6833 151.58 82.47L152.38 80.66C152.687 80.8467 153.03 80.9967 153.41 81.11C153.797 81.2167 154.173 81.27 154.54 81.27C154.84 81.27 155.063 81.2467 155.21 81.2C155.363 81.1467 155.467 81.0767 155.52 80.99C155.58 80.9033 155.61 80.8033 155.61 80.69C155.61 80.5233 155.523 80.3933 155.35 80.3C155.183 80.2 154.963 80.1167 154.69 80.05C154.417 79.9767 154.117 79.9 153.79 79.82C153.47 79.7333 153.147 79.6233 152.82 79.49C152.5 79.3567 152.203 79.1833 151.93 78.97C151.657 78.7567 151.433 78.4833 151.26 78.15C151.093 77.8167 151.01 77.3933 151.01 76.88C151.01 76.3067 151.167 75.7867 151.48 75.32C151.793 74.8467 152.257 74.4733 152.87 74.2C153.49 73.9267 154.257 73.79 155.17 73.79C155.617 73.79 156.057 73.84 156.49 73.94C156.93 74.0333 157.323 74.1767 157.67 74.37L156.92 76.17C156.587 75.9967 156.257 75.8733 155.93 75.8C155.603 75.72 155.287 75.68 154.98 75.68C154.687 75.68 154.463 75.71 154.31 75.77C154.157 75.83 154.053 75.91 154 76.01C153.947 76.1033 153.92 76.2067 153.92 76.32C153.92 76.48 154.003 76.61 154.17 76.71C154.343 76.8033 154.567 76.88 154.84 76.94C155.113 77 155.41 77.0733 155.73 77.16C156.057 77.24 156.38 77.3467 156.7 77.48C157.027 77.6133 157.327 77.7867 157.6 78C157.873 78.2067 158.093 78.4767 158.26 78.81C158.433 79.1433 158.52 79.5667 158.52 80.08C158.52 80.6467 158.363 81.1667 158.05 81.64C157.737 82.1067 157.27 82.48 156.65 82.76C156.037 83.04 155.297 83.18 154.43 83.18ZM161.121 83V76.28H163.581V83H161.121ZM168.46 83V78.22H166.57V76.28H172.8V78.22H170.91V83H168.46ZM178.522 80.8V83H176.062V80.77L173.522 76.28H176.112L177.402 78.62L178.692 76.28H181.072L178.522 80.8Z" fill="#AFC0DA"/>
</svg>
